<svg width="216" height="201" viewBox="0 0 216 201" fill="none" xmlns="http://www.w3.org/2000/svg">
<mask id="path-1-outside-1_201_13" maskUnits="userSpaceOnUse" x="87.0966" y="-2.95436" width="131.37" height="128.493" fill="black">
<rect fill="white" x="87.0966" y="-2.95436" width="131.37" height="128.493"/>
<path d="M182.228 95.1061L166.578 94.3693L168.397 58.6199L125.067 96.8488L114.19 85.0835L157.521 46.8546L120.959 45.0238L121.769 29.7084L185.391 32.9462L182.228 95.1061Z"/>
</mask>
<path d="M182.228 95.1061L166.578 94.3693L168.397 58.6199L125.067 96.8488L114.19 85.0835L157.521 46.8546L120.959 45.0238L121.769 29.7084L185.391 32.9462L182.228 95.1061Z" fill="#F9F3F3"/>
<path d="M182.228 95.1061L182.182 96.0933L183.188 96.1407L183.238 95.1575L182.228 95.1061ZM166.578 94.3693L165.568 94.3179L165.517 95.3088L166.532 95.3565L166.578 94.3693ZM168.397 58.6199L169.408 58.6713L169.529 56.2884L167.719 57.8856L168.397 58.6199ZM125.067 96.8488L124.317 97.5104L124.996 98.2447L125.746 97.5831L125.067 96.8488ZM114.19 85.0835L113.511 84.3492L112.761 85.0108L113.44 85.7451L114.19 85.0835ZM157.521 46.8546L158.2 47.5889L160.012 45.9898L157.57 45.8675L157.521 46.8546ZM120.959 45.0238L119.949 44.9704L119.897 45.9601L120.91 46.0108L120.959 45.0238ZM121.769 29.7084L121.819 28.7214L120.811 28.67L120.759 29.6551L121.769 29.7084ZM185.391 32.9462L186.402 32.9976L186.452 32.0105L185.442 31.9591L185.391 32.9462ZM182.274 94.1189L166.624 93.3821L166.532 95.3565L182.182 96.0933L182.274 94.1189ZM167.588 94.4207L169.408 58.6713L167.387 58.5685L165.568 94.3179L167.588 94.4207ZM167.719 57.8856L124.388 96.1145L125.746 97.5831L169.076 59.3542L167.719 57.8856ZM125.817 96.1873L114.94 84.4219L113.44 85.7451L124.317 97.5104L125.817 96.1873ZM114.869 85.8178L158.2 47.5889L156.842 46.1203L113.511 84.3492L114.869 85.8178ZM157.57 45.8675L121.009 44.0367L120.91 46.0108L157.471 47.8416L157.57 45.8675ZM121.969 45.0771L122.779 29.7617L120.759 29.6551L119.949 44.9704L121.969 45.0771ZM121.719 30.6954L185.341 33.9332L185.442 31.9591L121.819 28.7214L121.719 30.6954ZM184.381 32.8947L181.218 95.0547L183.238 95.1575L186.402 32.9976L184.381 32.8947Z" fill="black" fill-opacity="0.05" mask="url(#path-1-outside-1_201_13)"/>
<mask id="path-3-outside-2_201_13" maskUnits="userSpaceOnUse" x="-2.04" y="75.2057" width="131.37" height="128.493" fill="black">
<rect fill="white" x="-2.04" y="75.2057" width="131.37" height="128.493"/>
<path d="M34.1988 105.638L49.8486 106.375L48.0293 142.124L91.36 103.895L102.237 115.661L58.9061 153.89L95.4675 155.721L94.6576 171.036L31.0354 167.798L34.1988 105.638Z"/>
</mask>
<path d="M34.1988 105.638L49.8486 106.375L48.0293 142.124L91.36 103.895L102.237 115.661L58.9061 153.89L95.4675 155.721L94.6576 171.036L31.0354 167.798L34.1988 105.638Z" fill="#F9F3F3"/>
<path d="M34.1988 105.638L34.2451 104.651L33.2386 104.604L33.1885 105.587L34.1988 105.638ZM49.8486 106.375L50.8589 106.426L50.9093 105.436L49.8949 105.388L49.8486 106.375ZM48.0293 142.124L47.019 142.073L46.8978 144.456L48.7081 142.859L48.0293 142.124ZM91.36 103.895L92.1099 103.234L91.431 102.5L90.6812 103.161L91.36 103.895ZM102.237 115.661L102.916 116.395L103.666 115.734L102.987 114.999L102.237 115.661ZM58.9061 153.89L58.2273 153.155L56.4148 154.755L58.8567 154.877L58.9061 153.89ZM95.4675 155.721L96.4777 155.774L96.53 154.784L95.5169 154.733L95.4675 155.721ZM94.6576 171.036L94.6074 172.023L95.6157 172.074L95.6677 171.089L94.6576 171.036ZM31.0354 167.798L30.0252 167.747L29.9749 168.734L30.9852 168.785L31.0354 167.798ZM34.1525 106.625L49.8023 107.362L49.8949 105.388L34.2451 104.651L34.1525 106.625ZM48.8384 106.324L47.019 142.073L49.0395 142.176L50.8589 106.426L48.8384 106.324ZM48.7081 142.859L92.0388 104.63L90.6812 103.161L47.3505 141.39L48.7081 142.859ZM90.6101 104.557L101.487 116.322L102.987 114.999L92.1099 103.234L90.6101 104.557ZM101.558 114.927L58.2273 153.155L59.5849 154.624L102.916 116.395L101.558 114.927ZM58.8567 154.877L95.4181 156.708L95.5169 154.733L58.9555 152.903L58.8567 154.877ZM94.4574 155.667L93.6474 170.983L95.6677 171.089L96.4777 155.774L94.4574 155.667ZM94.7078 170.049L31.0857 166.811L30.9852 168.785L94.6074 172.023L94.7078 170.049ZM32.0457 167.85L35.209 105.69L33.1885 105.587L30.0252 167.747L32.0457 167.85Z" fill="black" fill-opacity="0.05" mask="url(#path-3-outside-2_201_13)"/>
</svg>
