<svg width="200" height="189" viewBox="0 0 200 189" fill="none" xmlns="http://www.w3.org/2000/svg">
<mask id="path-1-outside-1_201_18" maskUnits="userSpaceOnUse" x="-1.90336" y="62.0456" width="131.37" height="128.493" fill="black">
<rect fill="white" x="-1.90336" y="62.0456" width="131.37" height="128.493"/>
<path d="M93.228 160.106L77.5782 159.369L79.3975 123.62L36.0668 161.849L25.19 150.083L68.5207 111.855L31.9592 110.024L32.7692 94.7084L96.3913 97.9461L93.228 160.106Z"/>
</mask>
<path d="M93.228 160.106L77.5782 159.369L79.3975 123.62L36.0668 161.849L25.19 150.083L68.5207 111.855L31.9592 110.024L32.7692 94.7084L96.3913 97.9461L93.228 160.106Z" fill="#F9F3F3"/>
<path d="M93.228 160.106L93.1817 161.093L94.1882 161.141L94.2382 160.157L93.228 160.106ZM77.5782 159.369L76.5679 159.318L76.5175 160.309L77.5319 160.357L77.5782 159.369ZM79.3975 123.62L80.4077 123.671L80.529 121.288L78.7186 122.886L79.3975 123.62ZM36.0668 161.849L35.3169 162.51L35.9957 163.245L36.7456 162.583L36.0668 161.849ZM25.19 150.083L24.5111 149.349L23.7613 150.011L24.4401 150.745L25.19 150.083ZM68.5207 111.855L69.1995 112.589L71.012 110.99L68.5701 110.867L68.5207 111.855ZM31.9592 110.024L30.9491 109.97L30.8968 110.96L31.9099 111.011L31.9592 110.024ZM32.7692 94.7084L32.8194 93.7213L31.8111 93.67L31.759 94.655L32.7692 94.7084ZM96.3913 97.9461L97.4016 97.9975L97.4518 97.0105L96.4416 96.9591L96.3913 97.9461ZM93.2743 159.119L77.6245 158.382L77.5319 160.357L93.1817 161.093L93.2743 159.119ZM78.5884 159.421L80.4077 123.671L78.3872 123.568L76.5679 159.318L78.5884 159.421ZM78.7186 122.886L35.3879 161.115L36.7456 162.583L80.0763 124.354L78.7186 122.886ZM36.8166 161.187L25.9398 149.422L24.4401 150.745L35.3169 162.51L36.8166 161.187ZM25.8688 150.818L69.1995 112.589L67.8418 111.12L24.5111 149.349L25.8688 150.818ZM68.5701 110.867L32.0086 109.037L31.9099 111.011L68.4713 112.842L68.5701 110.867ZM32.9694 110.077L33.7793 94.7617L31.759 94.655L30.9491 109.97L32.9694 110.077ZM32.7189 95.6954L96.3411 98.9332L96.4416 96.9591L32.8194 93.7213L32.7189 95.6954ZM95.3811 97.8947L92.2177 160.055L94.2382 160.157L97.4016 97.9975L95.3811 97.8947Z" fill="black" fill-opacity="0.05" mask="url(#path-1-outside-1_201_18)"/>
<mask id="path-3-outside-2_201_18" maskUnits="userSpaceOnUse" x="69.96" y="-1.77665" width="131.37" height="128.493" fill="black">
<rect fill="white" x="69.96" y="-1.77665" width="131.37" height="128.493"/>
<path d="M106.199 28.6559L121.849 29.3926L120.029 65.142L163.36 26.9131L174.237 38.6784L130.906 76.9074L167.468 78.7382L166.658 94.0536L103.035 90.8158L106.199 28.6559Z"/>
</mask>
<path d="M106.199 28.6559L121.849 29.3926L120.029 65.142L163.36 26.9131L174.237 38.6784L130.906 76.9074L167.468 78.7382L166.658 94.0536L103.035 90.8158L106.199 28.6559Z" fill="#F9F3F3"/>
<path d="M106.199 28.6559L106.245 27.6686L105.239 27.6212L105.189 28.6044L106.199 28.6559ZM121.849 29.3926L122.859 29.4441L122.909 28.4532L121.895 28.4054L121.849 29.3926ZM120.029 65.142L119.019 65.0906L118.898 67.4735L120.708 65.8763L120.029 65.142ZM163.36 26.9131L164.11 26.2515L163.431 25.5172L162.681 26.1788L163.36 26.9131ZM174.237 38.6784L174.916 39.4127L175.666 38.7512L174.987 38.0169L174.237 38.6784ZM130.906 76.9074L130.227 76.1731L128.415 77.7722L130.857 77.8945L130.906 76.9074ZM167.468 78.7382L168.478 78.7915L168.53 77.8019L167.517 77.7511L167.468 78.7382ZM166.658 94.0536L166.607 95.0406L167.616 95.0919L167.668 94.1069L166.658 94.0536ZM103.035 90.8158L102.025 90.7644L101.975 91.7514L102.985 91.8028L103.035 90.8158ZM106.152 29.6431L121.802 30.3799L121.895 28.4054L106.245 27.6686L106.152 29.6431ZM120.838 29.3412L119.019 65.0906L121.04 65.1935L122.859 29.4441L120.838 29.3412ZM120.708 65.8763L164.039 27.6474L162.681 26.1788L119.35 64.4078L120.708 65.8763ZM162.61 27.5747L173.487 39.34L174.987 38.0169L164.11 26.2515L162.61 27.5747ZM173.558 37.9442L130.227 76.1731L131.585 77.6417L174.916 39.4127L173.558 37.9442ZM130.857 77.8945L167.418 79.7253L167.517 77.7511L130.955 75.9203L130.857 77.8945ZM166.457 78.6849L165.647 94.0002L167.668 94.1069L168.478 78.7915L166.457 78.6849ZM166.708 93.0665L103.086 89.8288L102.985 91.8028L166.607 95.0406L166.708 93.0665ZM104.046 90.8672L107.209 28.7073L105.189 28.6044L102.025 90.7644L104.046 90.8672Z" fill="black" fill-opacity="0.05" mask="url(#path-3-outside-2_201_18)"/>
</svg>
